<?xml version="1.0" standalone="no"?><!DOCTYPE svg PUBLIC "-//W3C//DTD SVG 1.1//EN" "http://www.w3.org/Graphics/SVG/1.1/DTD/svg11.dtd"><svg class="icon" width="200px" height="200.00px" viewBox="0 0 1024 1024" version="1.1" xmlns="http://www.w3.org/2000/svg"><path d="M511.939185 511.939185m-288.505523 0a288.505523 288.505523 0 1 0 577.011046 0 288.505523 288.505523 0 1 0-577.011046 0Z" fill="#A0D8E7" /><path d="M645.123649 360.996793c4.865186 0 9.000594 1.702815 12.527854 5.108445 3.52726 3.40563 5.230075 7.662668 5.230074 12.649483v204.216178c0 1.581185-1.702815 4.621927-5.230074 9.243853-3.52726 4.500297-7.905927 9.730372-13.257632 15.690225s-11.311557 12.162965-17.757928 18.730966c-6.568001 6.568001-12.771113 12.527854-18.730966 17.757928-5.959853 5.351704-11.189928 9.730372-15.690225 13.257632-4.500297 3.52726-7.541038 5.230075-9.243853 5.230074H378.754721c-4.865186 0-9.000594-1.702815-12.527853-5.230074-3.52726-3.52726-5.230075-7.662668-5.230075-12.527854v-266.368928c0-4.986816 1.702815-9.243853 5.230075-12.649483 3.52726-3.40563 7.662668-5.108445 12.527853-5.108445h266.368928z m-92.681791 239.488775c2.675852 0 4.865186-0.973037 6.68963-2.919111 1.824445-1.946074 2.675852-4.135408 2.675853-6.81126 0-2.675852-0.851408-4.865186-2.675853-6.689631-1.824445-1.824445-4.013778-2.675852-6.68963-2.675852H409.040504c-2.675852 0-4.865186 0.851408-6.811261 2.675852-1.946074 1.824445-2.919112 4.013778-2.919111 6.689631s0.973037 4.865186 2.919111 6.81126c1.946074 1.946074 4.135408 2.919112 6.811261 2.919111h143.401354z m76.748307-76.748307c2.797482 0 5.108445-0.973037 6.93289-2.919112 1.824445-1.946074 2.675852-4.257038 2.675852-7.054519 0-2.432593-0.851408-4.500297-2.675852-6.324742-1.824445-1.824445-4.135408-2.675852-6.93289-2.675852H409.040504c-2.675852 0-4.865186 0.851408-6.811261 2.675852-1.946074 1.824445-2.919112 3.892149-2.919111 6.324742 0 2.797482 0.973037 5.230075 2.919111 7.054519 1.946074 1.946074 4.135408 2.919112 6.811261 2.919112h220.149661z m0-66.653047c2.797482 0 5.108445-0.973037 6.93289-2.919111 1.824445-1.946074 2.675852-4.257038 2.675852-7.05452 0-2.675852-0.851408-4.865186-2.675852-6.68963-1.824445-1.824445-4.135408-2.675852-6.93289-2.675853H409.040504c-2.675852 0-4.865186 0.851408-6.811261 2.675853-1.946074 1.824445-2.919112 4.013778-2.919111 6.68963 0 2.797482 0.973037 5.230075 2.919111 7.05452 1.946074 1.946074 4.135408 2.919112 6.811261 2.919111h220.149661z m0 0" fill="#FFFFFF" /></svg>